# xmcd
#
# Track frame offsets: 
#        150
#        18510
#        33840
#        50733
#        68310
#        84550
#        102187
#        115579
#        135901
#        149557
#        167825
#        184888
#        203547
#        228928
#
# Disc length: 3066 seconds
#
# Revision: 2
# Processed by: cddbd v1.5.2PL0 Copyright (c) Steve Scherf et al.
# Submitted via: ExactAudioCopy v0.95b4
#
DISCID=b00bf80e
DTITLE=Keri Noble - Fearless
DYEAR=2005
DGENRE=Vocal
TTITLE0=Look At Me
TTITLE1=Talk To Me
TTITLE2=Piece Of My Heart
TTITLE3=A Dream About You
TTITLE4=About Me
TTITLE5=Let It Rain
TTITLE6=Falling
TTITLE7=Love Is All I Know
TTITLE8=Answered Prayer
TTITLE9=Bartender
TTITLE10=I Won't
TTITLE11=If No One Will Listen
TTITLE12=Honest
TTITLE13=Unknown
EXTD=She's great
EXTT0=She's Great
EXTT1=
EXTT2=
EXTT3=
EXTT4=
EXTT5=
EXTT6=
EXTT7=
EXTT8=
EXTT9=
EXTT10=
EXTT11=
EXTT12=
EXTT13=
PLAYORDER=
